<svg width="116" height="30" viewBox="0 0 116 30" fill="none" xmlns="http://www.w3.org/2000/svg">
<rect width="116" height="30" rx="15" fill="white"/>
<g clip-path="url(#clip0)">
<path d="M17 21C17 21.55 17.45 22 18 22H19V25.5C19 26.33 19.67 27 20.5 27C21.33 27 22 26.33 22 25.5V22H24V25.5C24 26.33 24.67 27 25.5 27C26.33 27 27 26.33 27 25.5V22H28C28.55 22 29 21.55 29 21V11H17V21ZM14.5 11C13.67 11 13 11.67 13 12.5V19.5C13 20.33 13.67 21 14.5 21C15.33 21 16 20.33 16 19.5V12.5C16 11.67 15.33 11 14.5 11ZM31.5 11C30.67 11 30 11.67 30 12.5V19.5C30 20.33 30.67 21 31.5 21C32.33 21 33 20.33 33 19.5V12.5C33 11.67 32.33 11 31.5 11ZM26.53 5.16L27.83 3.86C28.03 3.66 28.03 3.35 27.83 3.15C27.63 2.95 27.32 2.95 27.12 3.15L25.64 4.63C24.85 4.23 23.95 4 23 4C22.04 4 21.14 4.23 20.34 4.63L18.85 3.15C18.65 2.95 18.34 2.95 18.14 3.15C17.94 3.35 17.94 3.66 18.14 3.86L19.45 5.17C17.97 6.26 17 8.01 17 10H29C29 8.01 28.03 6.25 26.53 5.16ZM21 8H20V7H21V8ZM26 8H25V7H26V8Z" fill="#02BE75"/>
</g>
<path d="M50.776 18.392H45.816L44.872 21H43.304L47.48 9.928H49.128L53.288 21H51.72L50.776 18.392ZM50.36 17.256L48.296 11.56L46.232 17.256H50.36ZM59.3858 12.072C60.4098 12.072 61.2364 12.4027 61.8658 13.064C62.4951 13.7147 62.8098 14.6587 62.8098 15.896V21H61.3538V16.024C61.3538 15.1493 61.1298 14.4773 60.6818 14.008C60.2338 13.5387 59.6258 13.304 58.8578 13.304C58.0578 13.304 57.4178 13.5653 56.9378 14.088C56.4578 14.6 56.2178 15.352 56.2178 16.344V21H54.7618V12.216H56.2178V14.296C56.4418 13.5813 56.8364 13.032 57.4018 12.648C57.9778 12.264 58.6391 12.072 59.3858 12.072ZM68.643 12.104C69.4963 12.104 70.2163 12.3173 70.803 12.744C71.4003 13.1707 71.8163 13.7413 72.051 14.456V9.16H73.507V21H72.051V18.76C71.8163 19.4747 71.4003 20.0453 70.803 20.472C70.2163 20.8987 69.4963 21.112 68.643 21.112C67.8643 21.112 67.171 20.9307 66.563 20.568C65.955 20.2053 65.475 19.688 65.123 19.016C64.7817 18.3333 64.611 17.5333 64.611 16.616C64.611 15.6987 64.7817 14.8987 65.123 14.216C65.475 13.5333 65.955 13.0107 66.563 12.648C67.171 12.2853 67.8643 12.104 68.643 12.104ZM69.059 13.4C68.163 13.4 67.443 13.688 66.899 14.264C66.3657 14.8293 66.099 15.6133 66.099 16.616C66.099 17.6187 66.3657 18.408 66.899 18.984C67.443 19.5493 68.163 19.832 69.059 19.832C69.635 19.832 70.147 19.6987 70.595 19.432C71.0537 19.1653 71.411 18.792 71.667 18.312C71.923 17.8213 72.051 17.256 72.051 16.616C72.051 15.976 71.923 15.4107 71.667 14.92C71.411 14.4293 71.0537 14.056 70.595 13.8C70.147 13.5333 69.635 13.4 69.059 13.4ZM77.2803 13.992C77.5683 13.384 77.9896 12.9147 78.5443 12.584C79.0989 12.2427 79.7603 12.072 80.5283 12.072V13.656H80.0803C79.2589 13.656 78.5869 13.8693 78.0643 14.296C77.5416 14.712 77.2803 15.4053 77.2803 16.376V21H75.8243V12.216H77.2803V13.992ZM85.9489 12.104C86.7915 12.104 87.5435 12.2853 88.2049 12.648C88.8769 13.0107 89.3995 13.5333 89.7729 14.216C90.1569 14.8987 90.3489 15.6987 90.3489 16.616C90.3489 17.5333 90.1569 18.3333 89.7729 19.016C89.3995 19.688 88.8769 20.2053 88.2049 20.568C87.5435 20.9307 86.7915 21.112 85.9489 21.112C85.1062 21.112 84.3489 20.9307 83.6769 20.568C83.0155 20.2053 82.4929 19.688 82.1089 19.016C81.7249 18.3333 81.5329 17.5333 81.5329 16.616C81.5329 15.6987 81.7249 14.8987 82.1089 14.216C82.4929 13.5333 83.0155 13.0107 83.6769 12.648C84.3489 12.2853 85.1062 12.104 85.9489 12.104ZM85.9489 13.384C85.4262 13.384 84.9409 13.5013 84.4929 13.736C84.0555 13.9707 83.6982 14.3333 83.4209 14.824C83.1542 15.304 83.0209 15.9013 83.0209 16.616C83.0209 17.32 83.1542 17.9173 83.4209 18.408C83.6982 18.888 84.0555 19.2453 84.4929 19.48C84.9409 19.7147 85.4262 19.832 85.9489 19.832C86.4715 19.832 86.9515 19.7147 87.3889 19.48C87.8369 19.2453 88.1942 18.888 88.4609 18.408C88.7382 17.9173 88.8769 17.32 88.8769 16.616C88.8769 15.9013 88.7382 15.304 88.4609 14.824C88.1942 14.3333 87.8369 13.9707 87.3889 13.736C86.9515 13.5013 86.4715 13.384 85.9489 13.384ZM91.9901 9.64C91.9901 9.37333 92.0808 9.16 92.2621 9C92.4435 8.82933 92.6835 8.744 92.9821 8.744C93.2808 8.744 93.5208 8.82933 93.7021 9C93.8835 9.16 93.9741 9.37333 93.9741 9.64C93.9741 9.90667 93.8835 10.1253 93.7021 10.296C93.5208 10.456 93.2808 10.536 92.9821 10.536C92.6835 10.536 92.4435 10.456 92.2621 10.296C92.0808 10.1253 91.9901 9.90667 91.9901 9.64ZM93.7021 12.216V21H92.2461V12.216H93.7021ZM99.643 12.104C100.496 12.104 101.216 12.3173 101.803 12.744C102.4 13.1707 102.816 13.7413 103.051 14.456V9.16H104.507V21H103.051V18.76C102.816 19.4747 102.4 20.0453 101.803 20.472C101.216 20.8987 100.496 21.112 99.643 21.112C98.8643 21.112 98.171 20.9307 97.563 20.568C96.955 20.2053 96.475 19.688 96.123 19.016C95.7817 18.3333 95.611 17.5333 95.611 16.616C95.611 15.6987 95.7817 14.8987 96.123 14.216C96.475 13.5333 96.955 13.0107 97.563 12.648C98.171 12.2853 98.8643 12.104 99.643 12.104ZM100.059 13.4C99.163 13.4 98.443 13.688 97.899 14.264C97.3657 14.8293 97.099 15.6133 97.099 16.616C97.099 17.6187 97.3657 18.408 97.899 18.984C98.443 19.5493 99.163 19.832 100.059 19.832C100.635 19.832 101.147 19.6987 101.595 19.432C102.054 19.1653 102.411 18.792 102.667 18.312C102.923 17.8213 103.051 17.256 103.051 16.616C103.051 15.976 102.923 15.4107 102.667 14.92C102.411 14.4293 102.054 14.056 101.595 13.8C101.147 13.5333 100.635 13.4 100.059 13.4Z" fill="#02BE75"/>
<defs>
<clipPath id="clip0">
<rect width="24" height="24" fill="white" transform="translate(11 3)"/>
</clipPath>
</defs>
</svg>
