<svg width="44" height="44" viewBox="0 0 44 44" fill="none" xmlns="http://www.w3.org/2000/svg">
<path d="M43.0374 21.969C43.0374 10.3709 33.598 0.934937 21.9999 0.934937C10.3983 0.934937 0.962402 10.3709 0.962402 21.969V41.0196C0.962402 42.1574 1.88709 43.0821 3.0249 43.0821H40.9749C42.1127 43.0821 43.0374 42.1574 43.0374 41.0196V21.969C43.0374 21.9724 43.0374 21.969 43.0374 21.969Z" fill="#1A6CA2"/>
<path d="M22 38.4828C31.1059 38.4828 38.5137 31.075 38.5137 21.9691C38.5137 12.8666 31.1059 5.45874 22 5.45874C12.894 5.45874 5.48621 12.8666 5.48621 21.9691C5.48621 31.075 12.894 38.4828 22 38.4828Z" fill="white"/>
<path d="M21.9999 3.69873C32.0753 3.69873 40.2737 11.8972 40.2737 21.9725C40.2737 32.0512 32.0753 40.2497 21.9999 40.2497C11.9246 40.2497 3.7262 32.0478 3.7262 21.969C3.7262 11.8937 11.9212 3.69873 21.9999 3.69873ZM21.9999 38.4828C31.1059 38.4828 38.5137 31.075 38.5137 21.969C38.5137 12.8665 31.1059 5.45873 21.9999 5.45873C12.894 5.45873 5.4862 12.8665 5.4862 21.969C5.4862 31.075 12.894 38.4828 21.9999 38.4828Z" fill="#B8E9F4"/>
<path d="M7.71704 23.0209C8.29797 23.0209 8.76891 22.5499 8.76891 21.969C8.76891 21.3881 8.29797 20.9171 7.71704 20.9171C7.1361 20.9171 6.66516 21.3881 6.66516 21.969C6.66516 22.5499 7.1361 23.0209 7.71704 23.0209Z" fill="#2F2F2F"/>
<path d="M8.72084 29.638C8.58221 29.3956 8.54488 29.1083 8.61698 28.8386C8.68908 28.5689 8.86477 28.3385 9.10584 28.1976C9.61115 27.9055 10.254 28.0773 10.5462 28.5826C10.8383 29.088 10.6665 29.7308 10.1612 30.023C9.65584 30.3151 9.00959 30.1433 8.72084 29.638Z" fill="#2F2F2F"/>
<path d="M14.331 35.2517C14.211 35.1826 14.1057 35.0904 14.0214 34.9806C13.937 34.8707 13.8752 34.7453 13.8394 34.6115C13.8036 34.4776 13.7946 34.3381 13.8129 34.2008C13.8312 34.0635 13.8764 33.9311 13.946 33.8113C14.0151 33.6913 14.1072 33.5861 14.2171 33.5017C14.327 33.4174 14.4524 33.3555 14.5862 33.3197C14.72 33.284 14.8596 33.275 14.9969 33.2933C15.1342 33.3116 15.2665 33.3568 15.3863 33.4263C15.8916 33.7151 16.0669 34.3613 15.7747 34.8667C15.6338 35.1086 15.4028 35.2849 15.1323 35.357C14.8618 35.4292 14.5737 35.3913 14.331 35.2517Z" fill="#2F2F2F"/>
<path d="M29.6646 35.2464C30.1677 34.9559 30.3401 34.3126 30.0496 33.8095C29.7591 33.3064 29.1158 33.134 28.6127 33.4245C28.1096 33.715 27.9373 34.3583 28.2277 34.8614C28.5182 35.3645 29.1615 35.5369 29.6646 35.2464Z" fill="#2F2F2F"/>
<path d="M35.279 29.6383C35.1385 29.8797 34.9078 30.0555 34.6378 30.1271C34.3677 30.1986 34.0803 30.16 33.8387 30.0198C33.719 29.9508 33.6141 29.8589 33.5299 29.7493C33.4458 29.6397 33.3841 29.5147 33.3483 29.3812C33.3126 29.2478 33.3035 29.1086 33.3215 28.9716C33.3396 28.8346 33.3845 28.7026 33.4537 28.583C33.5228 28.4629 33.6149 28.3577 33.7248 28.2733C33.8346 28.189 33.9601 28.1271 34.0939 28.0914C34.2277 28.0556 34.3673 28.0466 34.5046 28.0649C34.6419 28.0832 34.7742 28.1284 34.894 28.198C35.3993 28.4901 35.5712 29.133 35.279 29.6383Z" fill="#2F2F2F"/>
<path d="M37.3347 21.969C37.3347 22.5534 36.8638 23.0209 36.2828 23.0209C36.0039 23.0209 35.7363 22.9101 35.539 22.7128C35.3418 22.5155 35.231 22.248 35.231 21.969C35.231 21.3846 35.7019 20.9137 36.2828 20.9137C36.8638 20.9171 37.3347 21.3881 37.3347 21.969Z" fill="#2F2F2F"/>
<path d="M35.2825 14.3035C35.5713 14.8089 35.3994 15.4517 34.8975 15.7439C34.3922 16.036 33.7494 15.8642 33.4572 15.3623C33.3879 15.2423 33.343 15.1098 33.3251 14.9723C33.3071 14.8349 33.3164 14.6953 33.3525 14.5615C33.3886 14.4277 33.4507 14.3023 33.5353 14.1926C33.62 14.0829 33.7254 13.9909 33.8456 13.922C34.3441 13.6264 34.9903 13.7982 35.2825 14.3035Z" fill="#2F2F2F"/>
<path d="M29.6655 8.69015C30.1709 8.98233 30.3393 9.62514 30.054 10.1305C29.9142 10.3727 29.6841 10.5496 29.4141 10.6224C29.1441 10.6952 28.8563 10.658 28.6137 10.5189C28.3719 10.3787 28.1955 10.1484 28.1233 9.87836C28.0511 9.60833 28.089 9.3207 28.2287 9.07858C28.2972 8.95843 28.3889 8.85302 28.4983 8.76841C28.6077 8.6838 28.7328 8.62166 28.8663 8.58556C28.9999 8.54946 29.1392 8.54012 29.2764 8.55807C29.4135 8.57601 29.5458 8.6209 29.6655 8.69015Z" fill="#2F2F2F"/>
<path d="M14.3343 8.69C14.8396 8.40125 15.4824 8.57312 15.7746 9.075C16.0668 9.58031 15.8949 10.2231 15.3896 10.5153C14.8877 10.8075 14.2415 10.6356 13.9493 10.1303C13.8797 10.0106 13.8344 9.87821 13.816 9.74089C13.7977 9.60357 13.8067 9.46397 13.8424 9.33013C13.8782 9.19629 13.9401 9.07084 14.0245 8.96098C14.1089 8.85113 14.2142 8.75904 14.3343 8.69Z" fill="#2F2F2F"/>
<path d="M8.7208 14.3034C8.86095 14.0615 9.09131 13.8852 9.36134 13.813C9.63136 13.7408 9.91899 13.7787 10.1611 13.9184C10.3418 14.0227 10.4874 14.1783 10.5796 14.3654C10.6718 14.5526 10.7065 14.7629 10.6791 14.9697C10.6518 15.1765 10.5638 15.3706 10.4262 15.5274C10.2885 15.6841 10.1075 15.7966 9.90595 15.8505C9.7044 15.9043 9.49141 15.8972 9.29391 15.83C9.09641 15.7628 8.92327 15.6386 8.7964 15.4729C8.66953 15.3073 8.59463 15.1078 8.58118 14.8996C8.56772 14.6914 8.61631 14.4839 8.7208 14.3034Z" fill="#2F2F2F"/>
<path d="M22 24.7704C23.5454 24.7704 24.7982 23.5177 24.7982 21.9723C24.7982 20.427 23.5454 19.1742 22 19.1742C20.4547 19.1742 19.2019 20.427 19.2019 21.9723C19.2019 23.5177 20.4547 24.7704 22 24.7704Z" fill="#2F2F2F"/>
<path d="M20.6833 22.9418H23.3165V7.94055C23.3165 7.36993 22.8559 6.9093 22.2852 6.9093H21.7146C21.144 6.9093 20.6833 7.36993 20.6833 7.94055V22.9418Z" fill="#2F2F2F"/>
<path d="M22 24.7704C23.5454 24.7704 24.7982 23.5177 24.7982 21.9723C24.7982 20.427 23.5454 19.1742 22 19.1742C20.4547 19.1742 19.2019 20.427 19.2019 21.9723C19.2019 23.5177 20.4547 24.7704 22 24.7704Z" fill="#2F2F2F"/>
<path d="M23.2822 20.9514L22.6015 23.4918L13.4578 21.0443C13.3271 21.0094 13.2045 20.949 13.0971 20.8667C12.9897 20.7844 12.8996 20.6817 12.8319 20.5645C12.7642 20.4474 12.7203 20.318 12.7026 20.1839C12.685 20.0497 12.694 19.9134 12.729 19.7827L12.8769 19.2293C12.9119 19.0983 12.9725 18.9755 13.0551 18.868C13.1377 18.7604 13.2407 18.6702 13.3582 18.6025C13.4757 18.5348 13.6054 18.491 13.7399 18.4735C13.8743 18.456 14.0109 18.4652 14.1419 18.5005L23.2822 20.9514Z" fill="#2F2F2F"/>
<path d="M21.9999 23.0209C22.5827 23.0209 23.0552 22.5499 23.0552 21.969C23.0552 21.3881 22.5827 20.9171 21.9999 20.9171C21.4171 20.9171 20.9446 21.3881 20.9446 21.969C20.9446 22.5499 21.4171 23.0209 21.9999 23.0209Z" fill="white"/>
<path d="M21.9999 37.3072C22.2789 37.3072 22.5464 37.1964 22.7437 36.9991C22.9409 36.8019 23.0518 36.5343 23.0518 36.2554C23.0518 35.6744 22.5843 35.2035 21.9999 35.2035C21.419 35.2035 20.9446 35.6744 20.9446 36.2554C20.9446 36.8329 21.419 37.3107 21.9999 37.3072Z" fill="#2F2F2F"/>
</svg>
