<svg width="24" height="24" viewBox="0 0 24 24" fill="none" xmlns="http://www.w3.org/2000/svg">
<path d="M9 22.5C8.85193 22.4993 8.70739 22.4547 8.5846 22.372C8.46181 22.2892 8.36626 22.172 8.31 22.035L4.7475 13.5H1.5V12H5.25C5.39807 12.0007 5.54261 12.0453 5.6654 12.128C5.78819 12.2108 5.88374 12.328 5.94 12.465L9 19.71L15.045 3.4875C15.0986 3.34395 15.195 3.22028 15.321 3.13312C15.447 3.04596 15.5968 2.99951 15.75 3C15.9047 3.00271 16.0547 3.05316 16.1796 3.14447C16.3044 3.23577 16.398 3.36344 16.4475 3.51L19.29 12H22.5V13.5H18.75C18.5928 13.5004 18.4394 13.4514 18.3115 13.3599C18.1837 13.2684 18.0878 13.139 18.0375 12.99L15.75 6L9.705 22.0125C9.65137 22.1561 9.55505 22.2797 9.429 22.3669C9.30296 22.454 9.15324 22.5005 9 22.5Z" fill="#20495B" fill-opacity="0.4"/>
</svg>
