<svg width="60" height="60" viewBox="0 0 60 60" fill="none" xmlns="http://www.w3.org/2000/svg">
<path d="M37.1 40.65C44.65 42.075 50 45.725 50 50V55H10V50C10 45.725 15.35 42.075 22.9 40.65L30 52.5L37.1 40.65ZM20 20H40V25C40 27.6522 38.9464 30.1957 37.0711 32.0711C35.1957 33.9465 32.6522 35 30 35C27.3478 35 24.8043 33.9465 22.9289 32.0711C21.0536 30.1957 20 27.6522 20 25V20ZM20 17.5L21.025 7.25003C21.0872 6.63122 21.3778 6.05781 21.8401 5.64176C22.3023 5.22572 22.9031 4.99691 23.525 5.00003H36.5C37.775 5.00003 38.85 5.97503 38.975 7.25003L40 17.5H20ZM30 7.50003H27.5V10H25V12.5H27.5V15H30V12.5H32.5V10H30V7.50003Z" fill="#FFC65F"/>
</svg>
