<svg width="40" height="40" viewBox="0 0 40 40" fill="none" xmlns="http://www.w3.org/2000/svg">
<g clip-path="url(#clip0)">
<path d="M15.3846 1.53845C12.8538 1.53845 10.7692 3.62307 10.7692 6.15384V9.23076H13.8462V6.15384C13.8462 5.28768 14.5185 4.61538 15.3846 4.61538H24.6154C25.4815 4.61538 26.1538 5.28768 26.1538 6.15384V9.23076H29.2308V6.15384C29.2308 3.62307 27.1462 1.53845 24.6154 1.53845H15.3846ZM4.61538 10.7692C3.39131 10.7692 2.21737 11.2555 1.35181 12.121C0.486262 12.9866 0 14.1605 0 15.3846L0 33.8461C0 35.0702 0.486262 36.2442 1.35181 37.1097C2.21737 37.9753 3.39131 38.4615 4.61538 38.4615H35.3846C37.9323 38.4615 40 36.3938 40 33.8461V15.3846C40 14.1605 39.5137 12.9866 38.6482 12.121C37.7826 11.2555 36.6087 10.7692 35.3846 10.7692H4.61538ZM20 15.24C21.2315 15.239 22.4511 15.4808 23.589 15.9516C24.7269 16.4224 25.7609 17.1129 26.6317 17.9837C27.5024 18.8545 28.193 19.8884 28.6638 21.0264C29.1346 22.1643 29.3764 23.3839 29.3754 24.6154C29.3764 25.8469 29.1346 27.0664 28.6638 28.2044C28.193 29.3423 27.5024 30.3762 26.6317 31.247C25.7609 32.1178 24.7269 32.8084 23.589 33.2792C22.4511 33.75 21.2315 33.9918 20 33.9908C18.7685 33.9918 17.5489 33.75 16.411 33.2792C15.2731 32.8084 14.2391 32.1178 13.3683 31.247C12.4976 30.3762 11.807 29.3423 11.3362 28.2044C10.8654 27.0664 10.6236 25.8469 10.6246 24.6154C10.6236 23.3839 10.8654 22.1643 11.3362 21.0264C11.807 19.8884 12.4976 18.8545 13.3683 17.9837C14.2391 17.1129 15.2731 16.4224 16.411 15.9516C17.5489 15.4808 18.7685 15.239 20 15.24ZM18.4615 20V23.0769H15.3846V26.1538H18.4615V29.2308H21.5385V26.1538H24.6154V23.0769H21.5385V20H18.4615Z" fill="#D2473C"/>
</g>
<defs>
<clipPath id="clip0">
<rect width="40" height="40" fill="white"/>
</clipPath>
</defs>
</svg>
