<svg width="116" height="30" viewBox="0 0 116 30" fill="none" xmlns="http://www.w3.org/2000/svg">
<rect width="116" height="30" rx="15" fill="white"/>
<path d="M49.7101 22.5C48.8801 23.74 48.0001 24.95 46.6601 24.97C45.3201 25 44.8901 24.18 43.3701 24.18C41.8401 24.18 41.3701 24.95 40.1001 25C38.7901 25.05 37.8001 23.68 36.9601 22.47C35.2501 20 33.9401 15.45 35.7001 12.39C36.5701 10.87 38.1301 9.91 39.8201 9.88C41.1001 9.86 42.3201 10.75 43.1101 10.75C43.8901 10.75 45.3701 9.68 46.9201 9.84C47.5701 9.87 49.3901 10.1 50.5601 11.82C50.4701 11.88 48.3901 13.1 48.4101 15.63C48.4401 18.65 51.0601 19.66 51.0901 19.67C51.0601 19.74 50.6701 21.11 49.7101 22.5ZM44.0001 6.5C44.7301 5.67 45.9401 5.04 46.9401 5C47.0701 6.17 46.6001 7.35 45.9001 8.19C45.2101 9.04 44.0701 9.7 42.9501 9.61C42.8001 8.46 43.3601 7.26 44.0001 6.5Z" fill="#02BE75"/>
<path d="M65.624 9.72V21H64.168V9.72H65.624ZM71.9489 12.104C72.7915 12.104 73.5435 12.2853 74.2049 12.648C74.8769 13.0107 75.3995 13.5333 75.7729 14.216C76.1569 14.8987 76.3489 15.6987 76.3489 16.616C76.3489 17.5333 76.1569 18.3333 75.7729 19.016C75.3995 19.688 74.8769 20.2053 74.2049 20.568C73.5435 20.9307 72.7915 21.112 71.9489 21.112C71.1062 21.112 70.3489 20.9307 69.6769 20.568C69.0155 20.2053 68.4929 19.688 68.1089 19.016C67.7249 18.3333 67.5329 17.5333 67.5329 16.616C67.5329 15.6987 67.7249 14.8987 68.1089 14.216C68.4929 13.5333 69.0155 13.0107 69.6769 12.648C70.3489 12.2853 71.1062 12.104 71.9489 12.104ZM71.9489 13.384C71.4262 13.384 70.9409 13.5013 70.4929 13.736C70.0555 13.9707 69.6982 14.3333 69.4209 14.824C69.1542 15.304 69.0209 15.9013 69.0209 16.616C69.0209 17.32 69.1542 17.9173 69.4209 18.408C69.6982 18.888 70.0555 19.2453 70.4929 19.48C70.9409 19.7147 71.4262 19.832 71.9489 19.832C72.4715 19.832 72.9515 19.7147 73.3889 19.48C73.8369 19.2453 74.1942 18.888 74.4609 18.408C74.7382 17.9173 74.8769 17.32 74.8769 16.616C74.8769 15.9013 74.7382 15.304 74.4609 14.824C74.1942 14.3333 73.8369 13.9707 73.3889 13.736C72.9515 13.5013 72.4715 13.384 71.9489 13.384ZM80.9981 12.104C81.9901 12.104 82.7848 12.3653 83.3821 12.888C83.9901 13.4 84.3581 14.0933 84.4861 14.968H83.0941C83.0301 14.4453 82.8115 14.0187 82.4381 13.688C82.0755 13.3467 81.5848 13.176 80.9661 13.176C80.4435 13.176 80.0328 13.304 79.7341 13.56C79.4461 13.8053 79.3021 14.1413 79.3021 14.568C79.3021 14.888 79.3981 15.1493 79.5901 15.352C79.7928 15.544 80.0381 15.6933 80.3261 15.8C80.6248 15.896 81.0301 16.0027 81.5421 16.12C82.1928 16.2693 82.7155 16.424 83.1101 16.584C83.5155 16.7333 83.8568 16.9787 84.1341 17.32C84.4221 17.6613 84.5661 18.12 84.5661 18.696C84.5661 19.4107 84.2941 19.992 83.7501 20.44C83.2168 20.888 82.5021 21.112 81.6061 21.112C80.5608 21.112 79.7075 20.8613 79.0461 20.36C78.3848 19.8587 77.9955 19.16 77.8781 18.264H79.2861C79.3395 18.7973 79.5688 19.2293 79.9741 19.56C80.3901 19.8907 80.9341 20.056 81.6061 20.056C82.1075 20.056 82.4968 19.928 82.7741 19.672C83.0621 19.416 83.2061 19.08 83.2061 18.664C83.2061 18.3227 83.1048 18.0507 82.9021 17.848C82.6995 17.6453 82.4488 17.4907 82.1501 17.384C81.8515 17.2773 81.4408 17.1653 80.9181 17.048C80.2675 16.8987 79.7448 16.7493 79.3501 16.6C78.9661 16.4507 78.6355 16.216 78.3581 15.896C78.0915 15.5653 77.9581 15.1227 77.9581 14.568C77.9581 13.832 78.2301 13.24 78.7741 12.792C79.3181 12.3333 80.0595 12.104 80.9981 12.104Z" fill="#02BE75"/>
</svg>
