<svg width="24" height="24" viewBox="0 0 24 24" fill="none" xmlns="http://www.w3.org/2000/svg">
<path d="M0 7C0 6.20435 0.316071 5.44129 0.87868 4.87868C1.44129 4.31607 2.20435 4 3 4H21C21.7956 4 22.5587 4.31607 23.1213 4.87868C23.6839 5.44129 24 6.20435 24 7V8.5H0V7Z" fill="#20495B" fill-opacity="0.4"/>
<path fill-rule="evenodd" clip-rule="evenodd" d="M0 11.5V19C0 19.7956 0.316071 20.5587 0.87868 21.1213C1.44129 21.6839 2.20435 22 3 22H21C21.7956 22 22.5587 21.6839 23.1213 21.1213C23.6839 20.5587 24 19.7956 24 19V11.5H0ZM4.5 14.5C4.10218 14.5 3.72064 14.658 3.43934 14.9393C3.15804 15.2206 3 15.6022 3 16V17.5C3 17.8978 3.15804 18.2794 3.43934 18.5607C3.72064 18.842 4.10218 19 4.5 19H6C6.39782 19 6.77936 18.842 7.06066 18.5607C7.34196 18.2794 7.5 17.8978 7.5 17.5V16C7.5 15.6022 7.34196 15.2206 7.06066 14.9393C6.77936 14.658 6.39782 14.5 6 14.5H4.5Z" fill="#20495B" fill-opacity="0.4"/>
</svg>
