<svg width="48" height="48" viewBox="0 0 48 48" fill="none" xmlns="http://www.w3.org/2000/svg">
<path d="M41.4546 25.6147C41.457 24.4062 41.1204 23.2213 40.4829 22.1947C39.8454 21.1681 38.9326 20.3409 37.8484 19.8072C36.7642 19.2736 35.552 19.0548 34.3496 19.1759C33.1472 19.2969 32.0029 19.7529 31.0468 20.4919C30.0907 21.231 29.3611 22.2235 28.941 23.3566C28.5209 24.4896 28.4272 25.7179 28.6704 26.9016C28.9137 28.0853 29.4842 29.177 30.3171 30.0526C31.1499 30.9282 32.2118 31.5526 33.3819 31.8547V33.6874C33.3819 35.8342 32.529 37.8931 31.011 39.4111C29.493 40.9291 27.4341 41.782 25.2873 41.782C23.1405 41.782 21.0816 40.9291 19.5636 39.4111C18.0456 37.8931 17.1928 35.8342 17.1928 33.6874C17.2739 31.7602 17.745 29.8694 18.5775 28.1294C19.41 26.3894 20.5867 24.8362 22.0364 23.5638H21.8182C23.3612 22.5572 24.6335 21.1874 25.5236 19.5745C26.4138 17.9616 26.8945 16.1549 26.9237 14.3129V7.81104C26.9237 6.52643 26.4134 5.29443 25.505 4.38608C24.5967 3.47772 23.3647 2.96741 22.08 2.96741H19.6364C19.2082 2.96741 18.7975 3.13751 18.4948 3.4403C18.192 3.74308 18.0219 4.15375 18.0219 4.58195C18.0219 5.01016 18.192 5.42082 18.4948 5.72361C18.7975 6.02639 19.2082 6.1965 19.6364 6.1965H22.0364C22.4646 6.1965 22.8753 6.3666 23.1781 6.66939C23.4809 6.97217 23.651 7.38284 23.651 7.81104V14.3129C23.651 16.4463 22.8065 18.4931 21.302 20.0058C19.7975 21.5185 17.7553 22.3741 15.6219 22.3856V23.5638V22.3856C14.5617 22.3913 13.5109 22.1882 12.5292 21.7878C11.5476 21.3874 10.6544 20.7976 9.90077 20.052C9.14709 19.3065 8.54765 18.4197 8.13667 17.4425C7.72569 16.4653 7.51122 15.4166 7.5055 14.3565V7.81104C7.5055 7.38284 7.67561 6.97217 7.97839 6.66939C8.28118 6.3666 8.69184 6.1965 9.12005 6.1965H11.3891C11.8173 6.1965 12.228 6.02639 12.5308 5.72361C12.8336 5.42082 13.0037 5.01016 13.0037 4.58195C13.0037 4.15375 12.8336 3.74308 12.5308 3.4403C12.228 3.13751 11.8173 2.96741 11.3891 2.96741H9.12005C7.85062 2.99028 6.64093 3.51068 5.75136 4.41657C4.86179 5.32246 4.36348 6.54141 4.36369 7.81104V14.3129C4.35897 16.1275 4.79299 17.9164 5.62875 19.5272C6.46452 21.1379 7.67727 22.5228 9.16368 23.5638C10.6054 24.8401 11.7739 26.3949 12.5989 28.1348C13.4238 29.8746 13.888 31.7634 13.9637 33.6874C13.9637 35.1744 14.2566 36.6469 14.8256 38.0208C15.3947 39.3946 16.2288 40.6429 17.2803 41.6944C18.3318 42.7459 19.5801 43.58 20.954 44.1491C22.3278 44.7182 23.8003 45.011 25.2873 45.011C26.7744 45.011 28.2468 44.7182 29.6207 44.1491C30.9945 43.58 32.2428 42.7459 33.2943 41.6944C34.3458 40.6429 35.1799 39.3946 35.749 38.0208C36.3181 36.6469 36.611 35.1744 36.611 33.6874V31.8547C37.9951 31.4973 39.2215 30.6908 40.098 29.5616C40.9746 28.4323 41.4517 27.0442 41.4546 25.6147ZM34.9091 28.8438C34.2705 28.8438 33.6462 28.6544 33.1151 28.2996C32.5841 27.9448 32.1702 27.4404 31.9258 26.8504C31.6814 26.2604 31.6175 25.6111 31.7421 24.9847C31.8667 24.3583 32.1742 23.783 32.6258 23.3314C33.0774 22.8798 33.6528 22.5722 34.2792 22.4476C34.9056 22.323 35.5548 22.387 36.1449 22.6314C36.7349 22.8758 37.2392 23.2897 37.594 23.8207C37.9488 24.3517 38.1382 24.976 38.1382 25.6147C38.1382 26.0387 38.0547 26.4586 37.8924 26.8504C37.7301 27.2422 37.4923 27.5981 37.1924 27.898C36.8926 28.1978 36.5366 28.4357 36.1449 28.598C35.7531 28.7603 35.3332 28.8438 34.9091 28.8438Z" fill="#277EFF"/>
</svg>
