<svg width="60" height="58" viewBox="0 0 60 58" fill="none" xmlns="http://www.w3.org/2000/svg">
<path fill-rule="evenodd" clip-rule="evenodd" d="M11.8099 9.51675L11.9474 9.22212C15.6953 1.19082 25.2063 -2.20149 33.1907 1.64518C40.0807 4.96455 43.5826 12.5897 42.0049 19.7783C44.8472 19.4723 47.8122 19.9341 50.5921 21.2734C58.5766 25.12 62.011 34.749 58.2631 42.7803L58.1256 43.0749C54.3777 51.1062 44.8667 54.4985 36.8822 50.6518C34.9542 49.723 33.2914 48.4569 31.9311 46.9576C31.8078 47.2714 31.6741 47.5833 31.5297 47.8927L31.3922 48.1873C27.6443 56.2186 18.1333 59.6109 10.1488 55.7643C2.16433 51.9176 -1.27006 42.2886 2.47787 34.2573L2.61533 33.9628C4.70106 29.4933 8.57155 26.4606 12.9705 25.3126C9.98444 20.7509 9.34927 14.7895 11.8099 9.51675ZM30.4488 7.52086C35.2395 9.82887 37.2816 15.6458 35.0101 20.5135C32.7386 25.3811 27.0135 27.456 22.2228 25.148C17.4321 22.84 15.39 17.023 17.6615 12.1554C19.933 7.28782 25.6581 5.21286 30.4488 7.52086ZM21.1167 32.2615C25.9074 34.5695 27.9496 40.3864 25.6781 45.254C23.4065 50.1216 17.6815 52.1966 12.8908 49.8886C8.1001 47.5806 6.05793 41.7636 8.32946 36.896C10.601 32.0284 16.3261 29.9535 21.1167 32.2615ZM52.4115 40.1417C54.683 35.2741 52.6408 29.4571 47.8501 27.1491C43.0594 24.8411 37.3344 26.9161 35.0629 31.7837C32.7913 36.6513 34.8335 42.4682 39.6242 44.7762C44.4149 47.0842 50.1399 45.0092 52.4115 40.1417Z" fill="url(#paint0_linear)" fill-opacity="0.4"/>
<defs>
<linearGradient id="paint0_linear" x1="30.3705" y1="0.0595093" x2="30.3705" y2="57.3499" gradientUnits="userSpaceOnUse">
<stop stop-color="#02BE75"/>
<stop offset="1" stop-color="#0D5BA1"/>
</linearGradient>
</defs>
</svg>
